<svg xmlns="http://www.w3.org/2000/svg" xmlns:xlink="http://www.w3.org/1999/xlink" fill="none" version="1.1" width="80" height="80" viewBox="0 0 80 80"><defs><clipPath id="master_svg0_61_065"><rect x="0" y="0" width="80" height="80" rx="0"/></clipPath></defs><g clip-path="url(#master_svg0_61_065)"><g><path d="M19.8947368,11L60.421051,11C66.816105,11,72,16.1734233,72,22.555556L72,37.000001999999995L19.8947368,37.000001999999995C18.2960185,37.000001999999995,17,35.706602000000004,17,34.111113L17,13.8888891C17,12.2934003,18.2960185,11,19.8947368,11Z" fill="#9DECEE" fill-opacity="1" style="mix-blend-mode:passthrough"/></g><g><path d="M16.625832000000003,5L23.9,5C26.481493,4.99981396995,28.756107,6.696402,29.491833,9.1708331L34.311330999999996,25.416666L63.333332,25.416666C69.776833,25.416666,75,30.639832,75,37.083332L75,63.333332C75,69.776833,69.776833,75,63.333332,75L16.666666,75C10.223167400000001,75,5,69.776833,5,63.333332L5,16.625832000000003C5,10.2044997,10.2044997,5,16.625832000000003,5Z" fill="#00C5CC" fill-opacity="1" style="mix-blend-mode:passthrough"/></g><g><path d="M25.000000999999997,42C26.553303,42,27.812500999999997,43.2591981,27.812500999999997,44.8125L27.811374999999998,48.1875L31.187500999999997,48.1875C32.740803,48.1874967,34,49.4466949,34,50.9999971C34,52.553298,32.740803,53.8125,31.187500999999997,53.8125L27.811374999999998,53.8125L27.812500999999997,57.1875C27.812500999999997,58.740803,26.553303,60,25.000000999999997,60C23.4466991,60,22.187501,58.740803,22.187501,57.1875L22.1863766,53.8125L18.8125017,53.8125C17.2591996,53.8125,16,52.553298,16,50.9999971C16,49.4466949,17.2591996,48.1874967,18.8125017,48.1875L22.1863766,48.1875L22.187501,44.8125C22.187501,43.2591981,23.4466991,42,25.000000999999997,42Z" fill="#FFFFFF" fill-opacity="1" style="mix-blend-mode:passthrough"/></g></g></svg>