<?xml version="1.0" standalone="no"?><!DOCTYPE svg PUBLIC "-//W3C//DTD SVG 1.1//EN" "http://www.w3.org/Graphics/SVG/1.1/DTD/svg11.dtd"><svg class="icon" width="200px" height="200.00px" viewBox="0 0 1024 1024" version="1.1" xmlns="http://www.w3.org/2000/svg"><path fill="#3D6DF6" d="M399.872 128h224a47.872 47.872 0 0 0 47.872-48.128V47.872A47.872 47.872 0 0 0 623.872 0h-224a47.872 47.872 0 0 0-47.872 48.128v31.744A48.128 48.128 0 0 0 399.872 128zM864 64h-128v16.128A96 96 0 0 1 640 175.872H384a96 96 0 0 1-96-96V64h-128A96 96 0 0 0 64 160v768A96 96 0 0 0 160 1024h704a96 96 0 0 0 96-96v-768a96 96 0 0 0-96-96z m-158.72 563.2a25.6 25.6 0 0 1-25.6 25.6H558.08v121.6a25.6 25.6 0 0 1-25.6 25.6h-40.96a25.6 25.6 0 0 1-25.6-25.6v-121.088h-121.6a25.6 25.6 0 0 1-25.6-25.6v-40.96a25.6 25.6 0 0 1 25.6-25.6h121.6v-121.6a25.6 25.6 0 0 1 25.6-25.6h40.96a25.6 25.6 0 0 1 25.6 25.6v121.6h121.6a25.6 25.6 0 0 1 25.6 25.6z" /></svg>